<?xml version="1.0" encoding="utf-8"?>
<!-- Generator: Adobe Illustrator 26.3.1, SVG Export Plug-In . SVG Version: 6.00 Build 0)  -->
<svg version="1.1" id="Capa_1" xmlns="http://www.w3.org/2000/svg" xmlns:xlink="http://www.w3.org/1999/xlink" x="0px" y="0px"
	 viewBox="0 0 753.97 486.55" style="enable-background:new 0 0 753.97 486.55;" xml:space="preserve">
<style type="text/css">
	.st0{fill:#262626;}
	.st1{fill:#EDA01D;}
</style>
<g>
	<g>
		<g>
			<path class="st0" d="M297.59,218.78c-5.33-2.13-8.79-2.93-8.79-7.46c0-3.73,4-6.39,10.65-9.32l29.83-13.05
				c2.66-1.06,4.53-2.4,6.92-2.4c3.73,0,4.79,2.93,4.79,8.79v86.56c0,6.39,1.6,10.12,6.13,13.32c4.79,3.46,9.85,4.53,9.85,10.92
				c0,5.33-3.99,8.79-10.12,8.79h-49.54c-6.13,0-9.85-3.46-9.85-8.79c0-6.39,5.06-7.46,9.85-10.92c4.53-3.2,5.86-6.92,5.86-13.32
				v-53.8C303.18,222.24,302.65,220.64,297.59,218.78z M294.66,159.38c0-11.72,15.98-24.24,33.82-24.24
				c7.99,0,13.58,4.53,13.58,11.72c0,12.25-15.45,23.97-32.49,23.97C299.98,170.84,294.66,166.31,294.66,159.38z"/>
			<path class="st0" d="M347.92,225.17c-5.86-2.4-9.85-3.2-9.85-8.79c0-4.53,4.26-7.99,12.78-12.52l29.3-15.98
				c2.66-1.6,5.06-2.4,6.92-2.4c3.99,0,4.53,3.2,4.79,8.79l0.8,14.12c13.05-14.38,26.1-21.57,40.48-21.57
				c14.11,0,24.5,6.92,33.02,21.04c11.72-14.12,22.37-21.04,35.69-21.04c21.04,0,34.09,13.32,41.55,41.81l7.72,29.56
				c5.06,19.71,8.26,31.69,13.58,36.22c4.53,3.99,10.39,5.33,10.39,11.72c0,5.86-5.06,8.79-15.18,8.79h-41.81
				c-10.39,0-15.45-1.87-15.45-8.79c0-4,2.13-6.13,5.86-8.79c4.79-3.2,9.32-4.53,9.32-9.32c0-5.06-2.4-19.44-9.05-42.35
				c-5.86-20.77-10.39-30.89-21.84-30.89c-10.65,0-18.38,9.05-18.38,24.5v42.88c0,6.39,1.6,10.12,6.39,13.32
				c5.06,3.46,9.86,4,9.86,10.65c0,5.06-3.73,8.79-10.12,8.79h-48.21c-6.13,0-9.85-3.46-9.85-8.79c0-6.66,4.53-7.19,9.59-10.65
				c4.53-3.2,6.13-6.92,6.13-13.32v-42.08c0-16.78-6.39-25.84-17.05-25.84c-11.72,0-23.17,11.99-23.17,25.03v42.88
				c0,6.39,1.6,10.12,6.13,13.32c5.06,3.46,9.85,4,9.85,10.65c0,5.33-3.99,8.79-10.12,8.79h-49.54c-6.13,0-9.85-3.46-9.85-8.79
				c0-6.66,4.79-7.19,9.85-10.65c4.53-3.2,5.86-6.92,5.86-13.32v-45.81C354.32,229.7,353.78,227.56,347.92,225.17z"/>
			<path class="st0" d="M550.87,294.68c0-9.05,8.52-18.91,25.83-28.76c-13.05-9.05-18.91-18.38-18.91-32.49
				c0-26.37,24.5-45.01,69.25-46.61c8.52-22.9,21.31-34.36,38.08-34.36c12.78,0,20.78,7.19,20.78,18.64
				c0,6.92-5.59,12.78-13.32,12.78c-5.86,0-11.45-3.2-16.51-3.2c-5.33,0-9.32,2.66-12.25,7.99c27.43,7.99,42.08,23.17,42.08,42.08
				c0,23.7-25.04,43.95-65.52,43.95c-10.39,0-19.71-0.8-27.7-2.93c-2.93,2.13-4.53,3.99-4.53,6.39c0,5.33,7.46,6.66,22.11,7.99
				l31.43,2.93c39.15,3.46,57.79,10.92,57.79,34.36c0,24.5-24.77,37.02-73.77,37.02c-49.54,0-75.37-10.92-75.37-27.7
				c0-7.19,6.66-15.18,20.24-22.64C557.53,307.2,550.87,301.87,550.87,294.68z M584.16,329.3c0,8.79,13.85,12.52,42.08,12.52
				c22.64,0,33.29-2.66,33.29-10.65c0-9.05-15.18-9.32-49-13.05l-19.18-2.13C586.56,320.78,584.16,325.04,584.16,329.3z
				 M598.55,231.56c0,17.05,9.32,27.97,22.64,27.97c14.91,0,22.64-9.59,22.64-28.5c0-18.91-8.52-29.56-21.84-29.56
				C607.87,201.46,598.55,213.18,598.55,231.56z"/>
		</g>
		<path class="st1" d="M723.42,316.53h-30.27c-4.32,0-7.82-3.5-7.82-7.82v-30.27c0-4.32,3.5-7.82,7.82-7.82h30.27
			c4.32,0,7.82,3.5,7.82,7.82v30.27C731.24,313.02,727.74,316.53,723.42,316.53z"/>
		<path class="st1" d="M191.7,329.18c-24.13,1.77-47.2,4.09-70.33,4.98c-26.04,1.01-50.63-18.33-57.99-43.26
			c-10.17-34.43-20.97-68.68-31.37-103.05c-6.69-22.1-13.99-44.06-19.44-66.46c-4.19-17.24-1.39-34.35,9.48-49.03
			c16.53-22.32,36.59-41.05,59.88-56.2c12.61-8.2,26.91-8.93,40.94-6.13c24.64,4.92,49.12,10.73,73.52,16.76
			c60.6,14.98,121.12,30.31,181.68,45.47c13.35,3.34,21.32,12.1,27.36,24.18c6.14,12.28,2.02,23.63-1.25,34.87
			c-4.18,14.35-9.91,28.25-15.18,42.26c-0.76,2.01-2.39,4.17-4.21,5.23c-11.99,7.02-24.15,13.76-36.27,20.57
			c-0.59,0.33-1.28,0.47-1.77,0.64c-3.4-13.81,2.16-25.67,6.93-37.73c5.17-13.09,10.25-26.22,15.23-39.38
			c0.81-2.14,1.13-4.56,1.2-6.87c0.2-6.57-1.43-8.58-7.97-10.2C321.56,95.79,281,85.67,240.4,75.77
			c-38.32-9.35-76.66-18.62-115.09-27.53c-6.39-1.48-13.34-1.93-19.84-1.18c-9.69,1.12-15.68,7.96-15.81,17.72
			c-0.09,6.95,0.99,14.05,2.49,20.88c8.01,36.33,16.4,72.58,24.49,108.9c4.2,18.86,7.99,37.81,12.07,56.7
			c3.23,14.96,6.59,19.25,21.89,20.12c23.27,1.31,46.64,0.79,69.97,1.03c1.99,0.02,3.98-0.16,5.97-0.29
			c11.19-0.74,20.46,5.72,22.58,16.82c2.31,12.06,3.69,24.29,5.56,36.43c3.26,21.17,6.59,42.33,10.84,63.62
			c4.7-12.04,9.42-24.07,14.09-36.13c3.52-9.08,6.88-18.23,10.55-27.25c0.54-1.33,2.42-2.98,3.7-3c11.72-0.23,23.45-0.14,35.77-0.14
			c-6.21,16-12.16,31.46-18.2,46.87c-9.76,24.86-19.53,49.72-29.41,74.53c-3.98,10-11.67,16.1-21.96,18.36
			c-8.8,1.93-15.82-2.27-20.43-9.36c-4-6.15-7.34-12.9-9.89-19.79c-12.18-32.85-23.98-65.83-35.94-98.76
			C193.07,332.3,192.18,330.35,191.7,329.18z"/>
	</g>
</g>
</svg>
